<?xml version="1.0" standalone="no"?><!DOCTYPE svg PUBLIC "-//W3C//DTD SVG 1.1//EN" "http://www.w3.org/Graphics/SVG/1.1/DTD/svg11.dtd"><svg t="1540372194259" class="icon" style="" viewBox="0 0 4248 1024" version="1.1" xmlns="http://www.w3.org/2000/svg" p-id="4816" xmlns:xlink="http://www.w3.org/1999/xlink" width="265.5" height="64"><defs><style type="text/css"></style></defs><path d="M3975.020 267.148h-16.544v-41.361l-16.544 27.297h-8.273l-8.273-27.297v41.361h-16.544v-70.312h16.544l16.544 38.051 16.544-38.051h16.544v70.312zM3900.571 209.243h-16.544v57.905h-16.544v-57.905h-16.544v-12.409h49.632v12.409zM3809.579 469.812h-49.632v-158.824l-57.905 103.401h-33.088l-49.632-103.401v158.824h-57.905v-272.977h57.905l66.176 147.242 74.449-147.242h49.632v272.977zM3486.968 469.812h-57.905l-16.544-47.978h-90.992l-16.544 47.978h-57.905l99.265-272.977h41.361l99.265 272.977zM3404.247 376.338l-33.088-99.265-33.088 99.265h66.176zM3164.358 469.812h-181.986v-272.977h181.986v47.152h-124.080v64.522h107.537v47.151h-107.537v67.004h124.080v47.151zM2899.653 243.985h-66.176v225.828h-57.905v-225.828h-74.449v-47.151h198.529v47.151zM2634.946 389.574c0 56.25-49.632 81.893-99.265 82.721-49.632 0-82.721-11.581-99.265-36.398l33.088-33.915c16.544 14.89 33.088 23.162 66.176 23.162s49.632-11.581 49.632-33.915c0-20.679-16.544-29.779-33.088-33.088l-33.088-4.136c-49.632-6.617-74.449-32.261-74.449-76.93 0-24.817 8.273-44.669 24.817-60.386 16.544-14.89 41.361-22.335 66.176-22.335 41.361 0 66.176 10.753 90.992 31.434l-33.088 33.915c-16.544-12.409-33.088-19.026-57.905-19.026-24.817 1.654-41.361 10.753-41.361 34.743 0 19.026 16.544 28.125 33.088 29.779l33.088 4.964c41.361 4.964 74.449 33.088 74.449 79.412zM2213.071 339.941c0 74.449-66.176 134.835-140.625 134.835s-132.352-60.386-132.352-134.835c0-73.622 57.905-134.007 132.352-134.007s140.625 60.386 140.625 134.007zM2072.446 90.125c-132.352 0-248.161 110.845-248.161 248.989l-157.169 224.173c-8.272-0.836-8.272-1.655-16.544-1.655-33.088 0-66.176 9.926-99.265 26.47l-706.434-284.559c-19.026-84.375-94.301-147.242-183.64-147.242-102.574 0-187.114 84.375-187.114 187.776 0 102.574 84.54 186.949 187.114 186.949 35.578 0 67.831-9.099 95.964-26.47l711.397 284.559c16.544 86.857 90.992 144.761 181.986 144.761s173.714-74.449 181.986-166.267l239.889-175.367c140.625 0 256.434-112.5 256.434-251.471-0.008-138.143-115.817-250.643-256.442-250.643zM2072.446 172.846c99.265 0 173.714 75.276 173.714 167.923 0 93.474-74.449 168.75-173.714 168.75-90.992 0-165.441-75.276-165.441-168.75 0-92.648 74.449-167.923 165.441-167.923zM661.233 205.934c52.941 0 99.265 28.952 122.435 72.794l-68.666-27.297c-55.423-19.853-116.636 7.445-138.971 62.040-21.508 55.423 3.309 117.463 57.078 141.453l57.905 23.162c-9.107 2.483-19.026 3.309-29.788 3.309-76.095 0-137.316-61.213-137.316-137.316 0.007-76.93 61.222-138.143 137.325-138.143zM1650.571 611.265c74.449 0 132.352 62.040 132.352 138.143 0 76.93-57.905 134.835-132.352 134.835-57.905 0-99.265-24.817-124.081-70.313 24.817 12.409 41.361 20.679 66.176 28.952 57.905 24.817 115.809-8.273 140.625-61.213 16.544-51.278 0-121.591-57.905-143.925l-57.905-23.162c8.272-1.663 24.817-3.317 33.088-3.317z" fill="" p-id="4817"></path></svg>